<svg id="visual" viewBox="0 0 960 540" width="960" height="540" xmlns="http://www.w3.org/2000/svg" xmlns:xlink="http://www.w3.org/1999/xlink" version="1.1"><rect x="0" y="0" width="960" height="540" fill="#001220"></rect><path d="M0 164L13.3 159C26.7 154 53.3 144 80 141.5C106.7 139 133.3 144 160 146.7C186.7 149.3 213.3 149.7 240 147.7C266.7 145.7 293.3 141.3 320 142.3C346.7 143.3 373.3 149.7 400 153C426.7 156.3 453.3 156.7 480 154.8C506.7 153 533.3 149 560 147.5C586.7 146 613.3 147 640 147.3C666.7 147.7 693.3 147.3 720 144.2C746.7 141 773.3 135 800 137.8C826.7 140.7 853.3 152.3 880 152.5C906.7 152.7 933.3 141.3 946.7 135.7L960 130L960 0L946.7 0C933.3 0 906.7 0 880 0C853.3 0 826.7 0 800 0C773.3 0 746.7 0 720 0C693.3 0 666.7 0 640 0C613.3 0 586.7 0 560 0C533.3 0 506.7 0 480 0C453.3 0 426.7 0 400 0C373.3 0 346.7 0 320 0C293.3 0 266.7 0 240 0C213.3 0 186.7 0 160 0C133.3 0 106.7 0 80 0C53.3 0 26.7 0 13.3 0L0 0Z" fill="#fa7268"></path><path d="M0 108L13.3 107C26.7 106 53.3 104 80 104C106.7 104 133.3 106 160 109.7C186.7 113.3 213.3 118.7 240 120.8C266.7 123 293.3 122 320 118C346.7 114 373.3 107 400 103C426.7 99 453.3 98 480 97.8C506.7 97.7 533.3 98.3 560 99.3C586.7 100.3 613.3 101.7 640 101.7C666.7 101.7 693.3 100.3 720 101C746.7 101.7 773.3 104.3 800 107.3C826.7 110.3 853.3 113.7 880 113.2C906.7 112.7 933.3 108.3 946.7 106.2L960 104L960 0L946.7 0C933.3 0 906.7 0 880 0C853.3 0 826.7 0 800 0C773.3 0 746.7 0 720 0C693.3 0 666.7 0 640 0C613.3 0 586.7 0 560 0C533.3 0 506.7 0 480 0C453.3 0 426.7 0 400 0C373.3 0 346.7 0 320 0C293.3 0 266.7 0 240 0C213.3 0 186.7 0 160 0C133.3 0 106.7 0 80 0C53.3 0 26.7 0 13.3 0L0 0Z" fill="#e95a51"></path><path d="M0 76L13.3 74.7C26.7 73.3 53.3 70.7 80 71.3C106.7 72 133.3 76 160 77.8C186.7 79.7 213.3 79.3 240 80.7C266.7 82 293.3 85 320 82.3C346.7 79.7 373.3 71.3 400 67.2C426.7 63 453.3 63 480 64C506.7 65 533.3 67 560 70.7C586.7 74.3 613.3 79.7 640 79.8C666.7 80 693.3 75 720 74.8C746.7 74.7 773.3 79.3 800 82C826.7 84.7 853.3 85.3 880 82C906.7 78.7 933.3 71.3 946.7 67.7L960 64L960 0L946.7 0C933.3 0 906.7 0 880 0C853.3 0 826.7 0 800 0C773.3 0 746.7 0 720 0C693.3 0 666.7 0 640 0C613.3 0 586.7 0 560 0C533.3 0 506.7 0 480 0C453.3 0 426.7 0 400 0C373.3 0 346.7 0 320 0C293.3 0 266.7 0 240 0C213.3 0 186.7 0 160 0C133.3 0 106.7 0 80 0C53.3 0 26.7 0 13.3 0L0 0Z" fill="#d9413b"></path><path d="M0 32L13.3 35.7C26.7 39.3 53.3 46.7 80 50.2C106.7 53.7 133.3 53.3 160 51.5C186.7 49.7 213.3 46.3 240 45.7C266.7 45 293.3 47 320 47.8C346.7 48.7 373.3 48.3 400 46.8C426.7 45.3 453.3 42.7 480 42.2C506.7 41.7 533.3 43.3 560 43C586.7 42.7 613.3 40.3 640 39.7C666.7 39 693.3 40 720 42.2C746.7 44.3 773.3 47.7 800 46.8C826.7 46 853.3 41 880 40.5C906.7 40 933.3 44 946.7 46L960 48L960 0L946.7 0C933.3 0 906.7 0 880 0C853.3 0 826.7 0 800 0C773.3 0 746.7 0 720 0C693.3 0 666.7 0 640 0C613.3 0 586.7 0 560 0C533.3 0 506.7 0 480 0C453.3 0 426.7 0 400 0C373.3 0 346.7 0 320 0C293.3 0 266.7 0 240 0C213.3 0 186.7 0 160 0C133.3 0 106.7 0 80 0C53.3 0 26.7 0 13.3 0L0 0Z" fill="#c72424"></path></svg>